<mxfile host="app.diagrams.net" agent="Mozilla/5.0 (Windows NT 10.0; Win64; x64) AppleWebKit/537.36 (KHTML, like Gecko) Chrome/140.0.0.0 Safari/537.36" version="28.2.5">
  <diagram name="Page-1" id="zlZ9y2XEh7zNr0AgNZiA">
    <mxGraphModel dx="4392" dy="1943" grid="1" gridSize="10" guides="1" tooltips="1" connect="1" arrows="1" fold="1" page="1" pageScale="1" pageWidth="827" pageHeight="1169" math="0" shadow="0">
      <root>
        <mxCell id="0" />
        <mxCell id="1" parent="0" />
        <mxCell id="42pxX61AVfphtNkWuJw1-20" style="edgeStyle=orthogonalEdgeStyle;rounded=0;orthogonalLoop=1;jettySize=auto;html=1;exitX=0.5;exitY=1;exitDx=0;exitDy=0;entryX=0.5;entryY=0;entryDx=0;entryDy=0;" parent="1" source="42pxX61AVfphtNkWuJw1-4" target="42pxX61AVfphtNkWuJw1-17" edge="1">
          <mxGeometry relative="1" as="geometry" />
        </mxCell>
        <mxCell id="42pxX61AVfphtNkWuJw1-4" value="SHOW TAB&lt;div&gt;Map&lt;/div&gt;" style="shape=process;whiteSpace=wrap;html=1;backgroundOutline=1;" parent="1" vertex="1">
          <mxGeometry x="30" y="380" width="120" height="60" as="geometry" />
        </mxCell>
        <mxCell id="42pxX61AVfphtNkWuJw1-11" style="edgeStyle=orthogonalEdgeStyle;rounded=0;orthogonalLoop=1;jettySize=auto;html=1;exitX=0.5;exitY=1;exitDx=0;exitDy=0;entryX=0.5;entryY=0;entryDx=0;entryDy=0;" parent="1" source="42pxX61AVfphtNkWuJw1-9" target="42pxX61AVfphtNkWuJw1-4" edge="1">
          <mxGeometry relative="1" as="geometry" />
        </mxCell>
        <mxCell id="42pxX61AVfphtNkWuJw1-14" style="edgeStyle=orthogonalEdgeStyle;rounded=0;orthogonalLoop=1;jettySize=auto;html=1;exitX=1;exitY=0.5;exitDx=0;exitDy=0;entryX=0.5;entryY=0;entryDx=0;entryDy=0;" parent="1" source="42pxX61AVfphtNkWuJw1-9" target="42pxX61AVfphtNkWuJw1-13" edge="1">
          <mxGeometry relative="1" as="geometry" />
        </mxCell>
        <mxCell id="42pxX61AVfphtNkWuJw1-15" style="edgeStyle=orthogonalEdgeStyle;rounded=0;orthogonalLoop=1;jettySize=auto;html=1;exitX=0;exitY=0.5;exitDx=0;exitDy=0;entryX=0.5;entryY=0;entryDx=0;entryDy=0;" parent="1" source="42pxX61AVfphtNkWuJw1-9" target="42pxX61AVfphtNkWuJw1-12" edge="1">
          <mxGeometry relative="1" as="geometry" />
        </mxCell>
        <mxCell id="42pxX61AVfphtNkWuJw1-9" value="NavButtons" style="rhombus;whiteSpace=wrap;html=1;fontSize=12;" parent="1" vertex="1">
          <mxGeometry x="50" y="260" width="80" height="80" as="geometry" />
        </mxCell>
        <mxCell id="42pxX61AVfphtNkWuJw1-21" style="edgeStyle=orthogonalEdgeStyle;rounded=0;orthogonalLoop=1;jettySize=auto;html=1;exitX=0.5;exitY=1;exitDx=0;exitDy=0;entryX=0.5;entryY=0;entryDx=0;entryDy=0;" parent="1" source="42pxX61AVfphtNkWuJw1-12" target="42pxX61AVfphtNkWuJw1-16" edge="1">
          <mxGeometry relative="1" as="geometry" />
        </mxCell>
        <mxCell id="42pxX61AVfphtNkWuJw1-12" value="SHOW TAB&lt;div&gt;Saved location List&lt;/div&gt;" style="shape=process;whiteSpace=wrap;html=1;backgroundOutline=1;" parent="1" vertex="1">
          <mxGeometry x="-130" y="380" width="120" height="60" as="geometry" />
        </mxCell>
        <mxCell id="42pxX61AVfphtNkWuJw1-19" style="edgeStyle=orthogonalEdgeStyle;rounded=0;orthogonalLoop=1;jettySize=auto;html=1;exitX=0.5;exitY=1;exitDx=0;exitDy=0;entryX=0.5;entryY=0;entryDx=0;entryDy=0;" parent="1" source="42pxX61AVfphtNkWuJw1-13" target="42pxX61AVfphtNkWuJw1-18" edge="1">
          <mxGeometry relative="1" as="geometry" />
        </mxCell>
        <mxCell id="42pxX61AVfphtNkWuJw1-13" value="SHOW TAB&lt;div&gt;Settings&lt;/div&gt;" style="shape=process;whiteSpace=wrap;html=1;backgroundOutline=1;" parent="1" vertex="1">
          <mxGeometry x="190" y="380" width="120" height="60" as="geometry" />
        </mxCell>
        <mxCell id="42pxX61AVfphtNkWuJw1-16" value="Saved Location&lt;div&gt;List&lt;/div&gt;" style="ellipse;whiteSpace=wrap;html=1;aspect=fixed;" parent="1" vertex="1">
          <mxGeometry x="-105" y="480" width="70" height="70" as="geometry" />
        </mxCell>
        <mxCell id="42pxX61AVfphtNkWuJw1-17" value="Map" style="ellipse;whiteSpace=wrap;html=1;aspect=fixed;" parent="1" vertex="1">
          <mxGeometry x="55" y="480" width="70" height="70" as="geometry" />
        </mxCell>
        <mxCell id="42pxX61AVfphtNkWuJw1-18" value="Settings" style="ellipse;whiteSpace=wrap;html=1;aspect=fixed;" parent="1" vertex="1">
          <mxGeometry x="215" y="480" width="70" height="70" as="geometry" />
        </mxCell>
        <mxCell id="UHgo2Rqdy59q7IhD6hAd-2" style="edgeStyle=orthogonalEdgeStyle;rounded=0;orthogonalLoop=1;jettySize=auto;html=1;exitX=0.5;exitY=1;exitDx=0;exitDy=0;endArrow=none;endFill=0;" parent="1" source="42pxX61AVfphtNkWuJw1-22" edge="1">
          <mxGeometry relative="1" as="geometry">
            <mxPoint x="-250" y="690" as="targetPoint" />
          </mxGeometry>
        </mxCell>
        <mxCell id="42pxX61AVfphtNkWuJw1-22" value="Saved Location&lt;div&gt;List&lt;/div&gt;" style="ellipse;whiteSpace=wrap;html=1;aspect=fixed;" parent="1" vertex="1">
          <mxGeometry x="-285" y="580" width="70" height="70" as="geometry" />
        </mxCell>
        <mxCell id="42pxX61AVfphtNkWuJw1-36" style="edgeStyle=orthogonalEdgeStyle;rounded=0;orthogonalLoop=1;jettySize=auto;html=1;exitX=0.5;exitY=1;exitDx=0;exitDy=0;entryX=0.5;entryY=0;entryDx=0;entryDy=0;" parent="1" source="42pxX61AVfphtNkWuJw1-26" target="42pxX61AVfphtNkWuJw1-35" edge="1">
          <mxGeometry relative="1" as="geometry" />
        </mxCell>
        <mxCell id="UHgo2Rqdy59q7IhD6hAd-31" value="YES" style="edgeLabel;html=1;align=center;verticalAlign=middle;resizable=0;points=[];" parent="42pxX61AVfphtNkWuJw1-36" vertex="1" connectable="0">
          <mxGeometry x="-0.2583" y="-1" relative="1" as="geometry">
            <mxPoint as="offset" />
          </mxGeometry>
        </mxCell>
        <mxCell id="UHgo2Rqdy59q7IhD6hAd-29" style="edgeStyle=orthogonalEdgeStyle;rounded=0;orthogonalLoop=1;jettySize=auto;html=1;exitX=0;exitY=0.5;exitDx=0;exitDy=0;endArrow=none;endFill=0;" parent="1" source="42pxX61AVfphtNkWuJw1-26" edge="1">
          <mxGeometry relative="1" as="geometry">
            <mxPoint x="-450" y="880.2380952380952" as="targetPoint" />
          </mxGeometry>
        </mxCell>
        <mxCell id="UHgo2Rqdy59q7IhD6hAd-32" value="NO" style="edgeLabel;html=1;align=center;verticalAlign=middle;resizable=0;points=[];" parent="UHgo2Rqdy59q7IhD6hAd-29" vertex="1" connectable="0">
          <mxGeometry x="0.0016" y="1" relative="1" as="geometry">
            <mxPoint as="offset" />
          </mxGeometry>
        </mxCell>
        <mxCell id="42pxX61AVfphtNkWuJw1-26" value="Is Location&lt;div&gt;List &amp;gt; 0?&lt;/div&gt;" style="rhombus;whiteSpace=wrap;html=1;" parent="1" vertex="1">
          <mxGeometry x="-395" y="830" width="100" height="100" as="geometry" />
        </mxCell>
        <mxCell id="UHgo2Rqdy59q7IhD6hAd-27" style="edgeStyle=orthogonalEdgeStyle;rounded=0;orthogonalLoop=1;jettySize=auto;html=1;exitX=0.5;exitY=1;exitDx=0;exitDy=0;entryX=0.5;entryY=0;entryDx=0;entryDy=0;" parent="1" source="42pxX61AVfphtNkWuJw1-35" target="UHgo2Rqdy59q7IhD6hAd-26" edge="1">
          <mxGeometry relative="1" as="geometry" />
        </mxCell>
        <mxCell id="42pxX61AVfphtNkWuJw1-35" value="List Locations" style="rounded=0;whiteSpace=wrap;html=1;" parent="1" vertex="1">
          <mxGeometry x="-405" y="970" width="120" height="60" as="geometry" />
        </mxCell>
        <mxCell id="UHgo2Rqdy59q7IhD6hAd-11" style="edgeStyle=orthogonalEdgeStyle;rounded=0;orthogonalLoop=1;jettySize=auto;html=1;exitX=0.5;exitY=0;exitDx=0;exitDy=0;endArrow=none;endFill=0;startArrow=classic;startFill=1;" parent="1" source="UHgo2Rqdy59q7IhD6hAd-1" edge="1">
          <mxGeometry relative="1" as="geometry">
            <mxPoint x="-345.0655737704917" y="690" as="targetPoint" />
          </mxGeometry>
        </mxCell>
        <mxCell id="UHgo2Rqdy59q7IhD6hAd-13" style="edgeStyle=orthogonalEdgeStyle;rounded=0;orthogonalLoop=1;jettySize=auto;html=1;exitX=0.5;exitY=1;exitDx=0;exitDy=0;entryX=0.5;entryY=0;entryDx=0;entryDy=0;" parent="1" source="UHgo2Rqdy59q7IhD6hAd-1" target="42pxX61AVfphtNkWuJw1-26" edge="1">
          <mxGeometry relative="1" as="geometry" />
        </mxCell>
        <mxCell id="UHgo2Rqdy59q7IhD6hAd-1" value="DISPLAY&lt;div&gt;&quot;Your Location&lt;/div&gt;&lt;div&gt;List is empty.&quot;&lt;/div&gt;" style="shape=parallelogram;perimeter=parallelogramPerimeter;whiteSpace=wrap;html=1;fixedSize=1;" parent="1" vertex="1">
          <mxGeometry x="-410" y="730" width="130" height="60" as="geometry" />
        </mxCell>
        <mxCell id="UHgo2Rqdy59q7IhD6hAd-5" style="edgeStyle=orthogonalEdgeStyle;rounded=0;orthogonalLoop=1;jettySize=auto;html=1;exitX=0.5;exitY=1;exitDx=0;exitDy=0;entryX=0.5;entryY=0;entryDx=0;entryDy=0;" parent="1" source="UHgo2Rqdy59q7IhD6hAd-4" target="42pxX61AVfphtNkWuJw1-9" edge="1">
          <mxGeometry relative="1" as="geometry" />
        </mxCell>
        <mxCell id="UHgo2Rqdy59q7IhD6hAd-4" value="PROGRAM&lt;div&gt;START&lt;/div&gt;" style="rounded=1;whiteSpace=wrap;html=1;arcSize=50;" parent="1" vertex="1">
          <mxGeometry x="30" y="160" width="120" height="60" as="geometry" />
        </mxCell>
        <mxCell id="UHgo2Rqdy59q7IhD6hAd-15" style="edgeStyle=orthogonalEdgeStyle;rounded=0;orthogonalLoop=1;jettySize=auto;html=1;exitX=0.5;exitY=1;exitDx=0;exitDy=0;entryX=0.5;entryY=0;entryDx=0;entryDy=0;" parent="1" source="UHgo2Rqdy59q7IhD6hAd-6" target="UHgo2Rqdy59q7IhD6hAd-14" edge="1">
          <mxGeometry relative="1" as="geometry" />
        </mxCell>
        <mxCell id="UHgo2Rqdy59q7IhD6hAd-6" value="BUTTON&lt;div&gt;Add Location List&lt;/div&gt;" style="shape=parallelogram;perimeter=parallelogramPerimeter;whiteSpace=wrap;html=1;fixedSize=1;" parent="1" vertex="1">
          <mxGeometry x="-210" y="730" width="130" height="60" as="geometry" />
        </mxCell>
        <mxCell id="UHgo2Rqdy59q7IhD6hAd-8" value="" style="endArrow=none;html=1;rounded=0;" parent="1" edge="1">
          <mxGeometry width="50" height="50" relative="1" as="geometry">
            <mxPoint x="-345" y="690" as="sourcePoint" />
            <mxPoint x="-145" y="690" as="targetPoint" />
          </mxGeometry>
        </mxCell>
        <mxCell id="UHgo2Rqdy59q7IhD6hAd-12" style="edgeStyle=orthogonalEdgeStyle;rounded=0;orthogonalLoop=1;jettySize=auto;html=1;exitX=0.5;exitY=0;exitDx=0;exitDy=0;endArrow=none;endFill=0;startArrow=classic;startFill=1;" parent="1" edge="1">
          <mxGeometry relative="1" as="geometry">
            <mxPoint x="-144.98557377049173" y="690" as="targetPoint" />
            <mxPoint x="-144.92000000000002" y="730" as="sourcePoint" />
          </mxGeometry>
        </mxCell>
        <mxCell id="UHgo2Rqdy59q7IhD6hAd-14" value="Map" style="ellipse;whiteSpace=wrap;html=1;aspect=fixed;" parent="1" vertex="1">
          <mxGeometry x="-180" y="850" width="70" height="70" as="geometry" />
        </mxCell>
        <mxCell id="UHgo2Rqdy59q7IhD6hAd-19" style="edgeStyle=orthogonalEdgeStyle;rounded=0;orthogonalLoop=1;jettySize=auto;html=1;exitX=0.5;exitY=1;exitDx=0;exitDy=0;entryX=0.5;entryY=0;entryDx=0;entryDy=0;" parent="1" source="UHgo2Rqdy59q7IhD6hAd-16" target="UHgo2Rqdy59q7IhD6hAd-17" edge="1">
          <mxGeometry relative="1" as="geometry" />
        </mxCell>
        <mxCell id="UHgo2Rqdy59q7IhD6hAd-16" value="Map" style="ellipse;whiteSpace=wrap;html=1;aspect=fixed;" parent="1" vertex="1">
          <mxGeometry x="55" y="580" width="70" height="70" as="geometry" />
        </mxCell>
        <mxCell id="UHgo2Rqdy59q7IhD6hAd-20" style="edgeStyle=orthogonalEdgeStyle;rounded=0;orthogonalLoop=1;jettySize=auto;html=1;exitX=0.5;exitY=1;exitDx=0;exitDy=0;entryX=0.5;entryY=0;entryDx=0;entryDy=0;" parent="1" source="UHgo2Rqdy59q7IhD6hAd-17" target="UHgo2Rqdy59q7IhD6hAd-18" edge="1">
          <mxGeometry relative="1" as="geometry" />
        </mxCell>
        <mxCell id="UHgo2Rqdy59q7IhD6hAd-17" value="DISPLAY&lt;br&gt;Map" style="shape=parallelogram;perimeter=parallelogramPerimeter;whiteSpace=wrap;html=1;fixedSize=1;" parent="1" vertex="1">
          <mxGeometry x="30" y="685" width="120" height="60" as="geometry" />
        </mxCell>
        <mxCell id="UHgo2Rqdy59q7IhD6hAd-22" style="edgeStyle=orthogonalEdgeStyle;rounded=0;orthogonalLoop=1;jettySize=auto;html=1;exitX=0.5;exitY=1;exitDx=0;exitDy=0;entryX=0.5;entryY=0;entryDx=0;entryDy=0;" parent="1" source="UHgo2Rqdy59q7IhD6hAd-18" target="UHgo2Rqdy59q7IhD6hAd-21" edge="1">
          <mxGeometry relative="1" as="geometry" />
        </mxCell>
        <mxCell id="UHgo2Rqdy59q7IhD6hAd-18" value="INPUT&lt;div&gt;Select Pinned Location&lt;/div&gt;" style="shape=parallelogram;perimeter=parallelogramPerimeter;whiteSpace=wrap;html=1;fixedSize=1;" parent="1" vertex="1">
          <mxGeometry x="30" y="795" width="120" height="60" as="geometry" />
        </mxCell>
        <mxCell id="UHgo2Rqdy59q7IhD6hAd-24" style="edgeStyle=orthogonalEdgeStyle;rounded=0;orthogonalLoop=1;jettySize=auto;html=1;exitX=0.5;exitY=1;exitDx=0;exitDy=0;entryX=0.5;entryY=0;entryDx=0;entryDy=0;" parent="1" source="UHgo2Rqdy59q7IhD6hAd-21" target="UHgo2Rqdy59q7IhD6hAd-23" edge="1">
          <mxGeometry relative="1" as="geometry" />
        </mxCell>
        <mxCell id="UHgo2Rqdy59q7IhD6hAd-21" value="INPUT&lt;div&gt;Description&lt;/div&gt;&lt;div&gt;Radius Trigger&lt;/div&gt;" style="shape=parallelogram;perimeter=parallelogramPerimeter;whiteSpace=wrap;html=1;fixedSize=1;" parent="1" vertex="1">
          <mxGeometry x="22.5" y="905" width="135" height="60" as="geometry" />
        </mxCell>
        <mxCell id="UHgo2Rqdy59q7IhD6hAd-47" style="edgeStyle=orthogonalEdgeStyle;rounded=0;orthogonalLoop=1;jettySize=auto;html=1;exitX=1;exitY=0.5;exitDx=0;exitDy=0;entryX=0.5;entryY=0;entryDx=0;entryDy=0;" parent="1" source="UHgo2Rqdy59q7IhD6hAd-23" target="UHgo2Rqdy59q7IhD6hAd-46" edge="1">
          <mxGeometry relative="1" as="geometry">
            <mxPoint x="210" y="1215" as="targetPoint" />
          </mxGeometry>
        </mxCell>
        <mxCell id="UHgo2Rqdy59q7IhD6hAd-48" value="YES" style="edgeLabel;html=1;align=center;verticalAlign=middle;resizable=0;points=[];" parent="UHgo2Rqdy59q7IhD6hAd-47" vertex="1" connectable="0">
          <mxGeometry x="-0.5657" y="1" relative="1" as="geometry">
            <mxPoint x="-18" y="1" as="offset" />
          </mxGeometry>
        </mxCell>
        <mxCell id="UHgo2Rqdy59q7IhD6hAd-50" style="edgeStyle=orthogonalEdgeStyle;rounded=0;orthogonalLoop=1;jettySize=auto;html=1;exitX=0;exitY=0.5;exitDx=0;exitDy=0;entryX=0.5;entryY=0;entryDx=0;entryDy=0;" parent="1" source="UHgo2Rqdy59q7IhD6hAd-23" target="UHgo2Rqdy59q7IhD6hAd-49" edge="1">
          <mxGeometry relative="1" as="geometry" />
        </mxCell>
        <mxCell id="UHgo2Rqdy59q7IhD6hAd-54" value="NO" style="edgeLabel;html=1;align=center;verticalAlign=middle;resizable=0;points=[];" parent="UHgo2Rqdy59q7IhD6hAd-50" vertex="1" connectable="0">
          <mxGeometry x="-0.4631" relative="1" as="geometry">
            <mxPoint x="5" as="offset" />
          </mxGeometry>
        </mxCell>
        <mxCell id="UHgo2Rqdy59q7IhD6hAd-23" value="Vibration&lt;div&gt;Alarm Only?&lt;/div&gt;" style="rhombus;whiteSpace=wrap;html=1;" parent="1" vertex="1">
          <mxGeometry x="25" y="1015" width="130" height="130" as="geometry" />
        </mxCell>
        <mxCell id="UHgo2Rqdy59q7IhD6hAd-44" style="edgeStyle=orthogonalEdgeStyle;rounded=0;orthogonalLoop=1;jettySize=auto;html=1;exitX=0.5;exitY=1;exitDx=0;exitDy=0;entryX=0.5;entryY=0;entryDx=0;entryDy=0;" parent="1" source="UHgo2Rqdy59q7IhD6hAd-26" target="UHgo2Rqdy59q7IhD6hAd-43" edge="1">
          <mxGeometry relative="1" as="geometry" />
        </mxCell>
        <mxCell id="UHgo2Rqdy59q7IhD6hAd-26" value="BUTTON&lt;br&gt;&lt;div&gt;Each Location Item&lt;/div&gt;&lt;div&gt;Button Clicked&lt;/div&gt;" style="shape=parallelogram;perimeter=parallelogramPerimeter;whiteSpace=wrap;html=1;fixedSize=1;" parent="1" vertex="1">
          <mxGeometry x="-420" y="1075" width="150" height="60" as="geometry" />
        </mxCell>
        <mxCell id="UHgo2Rqdy59q7IhD6hAd-28" value="" style="endArrow=classic;html=1;rounded=0;" parent="1" edge="1">
          <mxGeometry width="50" height="50" relative="1" as="geometry">
            <mxPoint x="-450" y="705" as="sourcePoint" />
            <mxPoint x="-350" y="705" as="targetPoint" />
          </mxGeometry>
        </mxCell>
        <mxCell id="UHgo2Rqdy59q7IhD6hAd-30" value="" style="endArrow=none;html=1;rounded=0;" parent="1" edge="1">
          <mxGeometry width="50" height="50" relative="1" as="geometry">
            <mxPoint x="-450" y="880" as="sourcePoint" />
            <mxPoint x="-450" y="705" as="targetPoint" />
          </mxGeometry>
        </mxCell>
        <mxCell id="UHgo2Rqdy59q7IhD6hAd-37" style="edgeStyle=orthogonalEdgeStyle;rounded=0;orthogonalLoop=1;jettySize=auto;html=1;exitX=0.5;exitY=1;exitDx=0;exitDy=0;entryX=0.5;entryY=0;entryDx=0;entryDy=0;" parent="1" source="UHgo2Rqdy59q7IhD6hAd-35" target="UHgo2Rqdy59q7IhD6hAd-36" edge="1">
          <mxGeometry relative="1" as="geometry" />
        </mxCell>
        <mxCell id="UHgo2Rqdy59q7IhD6hAd-35" value="Track Location" style="ellipse;whiteSpace=wrap;html=1;aspect=fixed;" parent="1" vertex="1">
          <mxGeometry x="50" y="1460" width="80" height="80" as="geometry" />
        </mxCell>
        <mxCell id="UHgo2Rqdy59q7IhD6hAd-39" style="edgeStyle=orthogonalEdgeStyle;rounded=0;orthogonalLoop=1;jettySize=auto;html=1;exitX=0.5;exitY=1;exitDx=0;exitDy=0;entryX=0.5;entryY=0;entryDx=0;entryDy=0;" parent="1" source="UHgo2Rqdy59q7IhD6hAd-36" target="UHgo2Rqdy59q7IhD6hAd-38" edge="1">
          <mxGeometry relative="1" as="geometry" />
        </mxCell>
        <mxCell id="UHgo2Rqdy59q7IhD6hAd-36" value="Track Location" style="rounded=0;whiteSpace=wrap;html=1;" parent="1" vertex="1">
          <mxGeometry x="30" y="1580" width="120" height="40" as="geometry" />
        </mxCell>
        <mxCell id="UHgo2Rqdy59q7IhD6hAd-40" style="edgeStyle=orthogonalEdgeStyle;rounded=0;orthogonalLoop=1;jettySize=auto;html=1;exitX=1;exitY=0.5;exitDx=0;exitDy=0;endArrow=none;endFill=0;" parent="1" source="UHgo2Rqdy59q7IhD6hAd-38" edge="1">
          <mxGeometry relative="1" as="geometry">
            <mxPoint x="190" y="1720.2" as="targetPoint" />
          </mxGeometry>
        </mxCell>
        <mxCell id="UHgo2Rqdy59q7IhD6hAd-55" value="NO" style="edgeLabel;html=1;align=center;verticalAlign=middle;resizable=0;points=[];" parent="UHgo2Rqdy59q7IhD6hAd-40" vertex="1" connectable="0">
          <mxGeometry x="-0.0393" y="1" relative="1" as="geometry">
            <mxPoint as="offset" />
          </mxGeometry>
        </mxCell>
        <mxCell id="gFcxVfCFn_ewDx2po6hb-7" style="edgeStyle=orthogonalEdgeStyle;rounded=0;orthogonalLoop=1;jettySize=auto;html=1;exitX=0.5;exitY=1;exitDx=0;exitDy=0;entryX=0.5;entryY=0;entryDx=0;entryDy=0;" parent="1" source="UHgo2Rqdy59q7IhD6hAd-38" target="gFcxVfCFn_ewDx2po6hb-6" edge="1">
          <mxGeometry relative="1" as="geometry" />
        </mxCell>
        <mxCell id="gFcxVfCFn_ewDx2po6hb-8" value="YES" style="edgeLabel;html=1;align=center;verticalAlign=middle;resizable=0;points=[];" parent="gFcxVfCFn_ewDx2po6hb-7" vertex="1" connectable="0">
          <mxGeometry x="-0.1813" y="-1" relative="1" as="geometry">
            <mxPoint as="offset" />
          </mxGeometry>
        </mxCell>
        <mxCell id="UHgo2Rqdy59q7IhD6hAd-38" value="Is user&lt;div&gt;within&amp;nbsp;&lt;span style=&quot;background-color: transparent; color: light-dark(rgb(0, 0, 0), rgb(255, 255, 255));&quot;&gt;the radius&lt;/span&gt;&lt;/div&gt;&lt;div&gt;&lt;span style=&quot;background-color: transparent; color: light-dark(rgb(0, 0, 0), rgb(255, 255, 255));&quot;&gt;of pinned&lt;/span&gt;&lt;/div&gt;&lt;div&gt;&lt;span style=&quot;background-color: transparent; color: light-dark(rgb(0, 0, 0), rgb(255, 255, 255));&quot;&gt;location?&lt;/span&gt;&lt;/div&gt;" style="rhombus;whiteSpace=wrap;html=1;fontSize=11;" parent="1" vertex="1">
          <mxGeometry x="30" y="1660" width="120" height="120" as="geometry" />
        </mxCell>
        <mxCell id="UHgo2Rqdy59q7IhD6hAd-41" value="" style="endArrow=none;html=1;rounded=0;endFill=0;" parent="1" edge="1">
          <mxGeometry width="50" height="50" relative="1" as="geometry">
            <mxPoint x="190" y="1720" as="sourcePoint" />
            <mxPoint x="190" y="1560" as="targetPoint" />
          </mxGeometry>
        </mxCell>
        <mxCell id="UHgo2Rqdy59q7IhD6hAd-42" value="" style="endArrow=classic;html=1;rounded=0;" parent="1" edge="1">
          <mxGeometry width="50" height="50" relative="1" as="geometry">
            <mxPoint x="190" y="1560" as="sourcePoint" />
            <mxPoint x="100" y="1560" as="targetPoint" />
          </mxGeometry>
        </mxCell>
        <mxCell id="UHgo2Rqdy59q7IhD6hAd-43" value="Track Location" style="ellipse;whiteSpace=wrap;html=1;aspect=fixed;" parent="1" vertex="1">
          <mxGeometry x="-385" y="1185" width="80" height="80" as="geometry" />
        </mxCell>
        <mxCell id="UHgo2Rqdy59q7IhD6hAd-46" value="Track Location" style="ellipse;whiteSpace=wrap;html=1;aspect=fixed;" parent="1" vertex="1">
          <mxGeometry x="170" y="1225" width="80" height="80" as="geometry" />
        </mxCell>
        <mxCell id="UHgo2Rqdy59q7IhD6hAd-52" style="edgeStyle=orthogonalEdgeStyle;rounded=0;orthogonalLoop=1;jettySize=auto;html=1;exitX=0.5;exitY=1;exitDx=0;exitDy=0;entryX=0.5;entryY=0;entryDx=0;entryDy=0;" parent="1" source="UHgo2Rqdy59q7IhD6hAd-49" target="UHgo2Rqdy59q7IhD6hAd-51" edge="1">
          <mxGeometry relative="1" as="geometry" />
        </mxCell>
        <mxCell id="UHgo2Rqdy59q7IhD6hAd-49" value="INPUT&lt;div&gt;Select Ringtone&lt;/div&gt;" style="shape=parallelogram;perimeter=parallelogramPerimeter;whiteSpace=wrap;html=1;fixedSize=1;" parent="1" vertex="1">
          <mxGeometry x="-90" y="1135" width="135" height="60" as="geometry" />
        </mxCell>
        <mxCell id="UHgo2Rqdy59q7IhD6hAd-53" style="edgeStyle=orthogonalEdgeStyle;rounded=0;orthogonalLoop=1;jettySize=auto;html=1;exitX=1;exitY=0.5;exitDx=0;exitDy=0;entryX=0;entryY=0.5;entryDx=0;entryDy=0;" parent="1" source="UHgo2Rqdy59q7IhD6hAd-51" target="UHgo2Rqdy59q7IhD6hAd-46" edge="1">
          <mxGeometry relative="1" as="geometry">
            <mxPoint x="160" y="1265" as="targetPoint" />
          </mxGeometry>
        </mxCell>
        <mxCell id="UHgo2Rqdy59q7IhD6hAd-51" value="INPUT&lt;div&gt;Ringtone&lt;/div&gt;&lt;div&gt;with Vibration?&lt;/div&gt;" style="shape=parallelogram;perimeter=parallelogramPerimeter;whiteSpace=wrap;html=1;fixedSize=1;" parent="1" vertex="1">
          <mxGeometry x="-90" y="1235" width="135" height="60" as="geometry" />
        </mxCell>
        <mxCell id="gFcxVfCFn_ewDx2po6hb-3" style="edgeStyle=orthogonalEdgeStyle;rounded=0;orthogonalLoop=1;jettySize=auto;html=1;exitX=0.5;exitY=1;exitDx=0;exitDy=0;entryX=0.5;entryY=0;entryDx=0;entryDy=0;" parent="1" source="gFcxVfCFn_ewDx2po6hb-1" target="gFcxVfCFn_ewDx2po6hb-2" edge="1">
          <mxGeometry relative="1" as="geometry" />
        </mxCell>
        <mxCell id="gFcxVfCFn_ewDx2po6hb-1" value="Settings" style="ellipse;whiteSpace=wrap;html=1;aspect=fixed;" parent="1" vertex="1">
          <mxGeometry x="360" y="580" width="70" height="70" as="geometry" />
        </mxCell>
        <mxCell id="gFcxVfCFn_ewDx2po6hb-5" style="edgeStyle=orthogonalEdgeStyle;rounded=0;orthogonalLoop=1;jettySize=auto;html=1;exitX=0.5;exitY=1;exitDx=0;exitDy=0;entryX=0.5;entryY=0;entryDx=0;entryDy=0;" parent="1" source="gFcxVfCFn_ewDx2po6hb-2" target="gFcxVfCFn_ewDx2po6hb-4" edge="1">
          <mxGeometry relative="1" as="geometry" />
        </mxCell>
        <mxCell id="gFcxVfCFn_ewDx2po6hb-2" value="TOGGLE&lt;div&gt;Dark Theme&lt;/div&gt;" style="shape=parallelogram;perimeter=parallelogramPerimeter;whiteSpace=wrap;html=1;fixedSize=1;" parent="1" vertex="1">
          <mxGeometry x="335" y="700" width="120" height="60" as="geometry" />
        </mxCell>
        <mxCell id="gFcxVfCFn_ewDx2po6hb-4" value="END" style="rounded=1;whiteSpace=wrap;html=1;arcSize=50;" parent="1" vertex="1">
          <mxGeometry x="335" y="810" width="120" height="60" as="geometry" />
        </mxCell>
        <mxCell id="gFcxVfCFn_ewDx2po6hb-11" style="edgeStyle=orthogonalEdgeStyle;rounded=0;orthogonalLoop=1;jettySize=auto;html=1;exitX=1;exitY=0.5;exitDx=0;exitDy=0;entryX=0;entryY=0.5;entryDx=0;entryDy=0;" parent="1" source="gFcxVfCFn_ewDx2po6hb-6" target="gFcxVfCFn_ewDx2po6hb-10" edge="1">
          <mxGeometry relative="1" as="geometry" />
        </mxCell>
        <mxCell id="gFcxVfCFn_ewDx2po6hb-14" value="NO" style="edgeLabel;html=1;align=center;verticalAlign=middle;resizable=0;points=[];" parent="gFcxVfCFn_ewDx2po6hb-11" vertex="1" connectable="0">
          <mxGeometry x="0.0373" relative="1" as="geometry">
            <mxPoint x="-3" as="offset" />
          </mxGeometry>
        </mxCell>
        <mxCell id="gFcxVfCFn_ewDx2po6hb-12" style="edgeStyle=orthogonalEdgeStyle;rounded=0;orthogonalLoop=1;jettySize=auto;html=1;exitX=0.5;exitY=1;exitDx=0;exitDy=0;entryX=0.5;entryY=0;entryDx=0;entryDy=0;" parent="1" source="gFcxVfCFn_ewDx2po6hb-6" target="gFcxVfCFn_ewDx2po6hb-9" edge="1">
          <mxGeometry relative="1" as="geometry" />
        </mxCell>
        <mxCell id="gFcxVfCFn_ewDx2po6hb-15" value="YES" style="edgeLabel;html=1;align=center;verticalAlign=middle;resizable=0;points=[];" parent="gFcxVfCFn_ewDx2po6hb-12" vertex="1" connectable="0">
          <mxGeometry x="-0.2228" y="-1" relative="1" as="geometry">
            <mxPoint as="offset" />
          </mxGeometry>
        </mxCell>
        <mxCell id="gFcxVfCFn_ewDx2po6hb-6" value="Is this location&lt;div&gt;list using vibration only?&lt;/div&gt;" style="rhombus;whiteSpace=wrap;html=1;" parent="1" vertex="1">
          <mxGeometry x="35" y="1840" width="110" height="110" as="geometry" />
        </mxCell>
        <mxCell id="gFcxVfCFn_ewDx2po6hb-17" style="edgeStyle=orthogonalEdgeStyle;rounded=0;orthogonalLoop=1;jettySize=auto;html=1;exitX=0.5;exitY=1;exitDx=0;exitDy=0;entryX=0.5;entryY=0;entryDx=0;entryDy=0;" parent="1" source="gFcxVfCFn_ewDx2po6hb-9" target="gFcxVfCFn_ewDx2po6hb-16" edge="1">
          <mxGeometry relative="1" as="geometry" />
        </mxCell>
        <mxCell id="gFcxVfCFn_ewDx2po6hb-9" value="PLAY&lt;div&gt;Vibration&lt;/div&gt;" style="rounded=0;whiteSpace=wrap;html=1;" parent="1" vertex="1">
          <mxGeometry x="30" y="2010" width="120" height="60" as="geometry" />
        </mxCell>
        <mxCell id="gFcxVfCFn_ewDx2po6hb-13" style="edgeStyle=orthogonalEdgeStyle;rounded=0;orthogonalLoop=1;jettySize=auto;html=1;exitX=0.5;exitY=1;exitDx=0;exitDy=0;" parent="1" source="gFcxVfCFn_ewDx2po6hb-10" edge="1">
          <mxGeometry relative="1" as="geometry">
            <mxPoint x="110" y="1970" as="targetPoint" />
            <Array as="points">
              <mxPoint x="260" y="1970" />
              <mxPoint x="140" y="1970" />
            </Array>
          </mxGeometry>
        </mxCell>
        <mxCell id="gFcxVfCFn_ewDx2po6hb-10" value="PLAY&lt;div&gt;Ringtone&lt;/div&gt;" style="rounded=0;whiteSpace=wrap;html=1;" parent="1" vertex="1">
          <mxGeometry x="200" y="1865" width="120" height="60" as="geometry" />
        </mxCell>
        <mxCell id="gFcxVfCFn_ewDx2po6hb-16" value="PROGRAM&lt;div&gt;START&lt;/div&gt;" style="rounded=1;whiteSpace=wrap;html=1;arcSize=50;" parent="1" vertex="1">
          <mxGeometry x="30" y="2120" width="120" height="60" as="geometry" />
        </mxCell>
      </root>
    </mxGraphModel>
  </diagram>
</mxfile>
